<?xml version="1.0" encoding="UTF-8"?>
<svg width="30px" height="30px" viewBox="0 0 30 30" version="1.1" xmlns="http://www.w3.org/2000/svg" xmlns:xlink="http://www.w3.org/1999/xlink">
    <!-- Generator: Sketch 49.3 (51167) - http://www.bohemiancoding.com/sketch -->
    <title>facebook</title>
    <desc>Created with Sketch.</desc>
    <defs>
        <polygon id="path-1" points="0 0 30 0 30 29.9 0 29.9"></polygon>
    </defs>
    <g id="Page-1" stroke="none" stroke-width="1" fill="none" fill-rule="evenodd">
        <g id="Share-page-created" transform="translate(-757.000000, -432.000000)">
            <g id="Group-8" transform="translate(527.000000, 417.000000)">
                <g id="Group-7" transform="translate(206.000000, 0.000000)">
                    <g id="facebook" transform="translate(24.000000, 15.000000)">
                        <mask id="mask-2" fill="white">
                            <use xlink:href="#path-1"></use>
                        </mask>
                        <g id="Clip-2"></g>
                        <path d="M26.6666667,0 L3.33333333,0 C1.5,0 0,1.5 0,3.33333333 L0,26.6666667 C0,28.5016667 1.5,30 3.33333333,30 L15,30 L15,18.3333333 L11.6666667,18.3333333 L11.6666667,14.2083333 L15,14.2083333 L15,10.7916667 C15,7.185 17.02,4.65166667 21.2766667,4.65166667 L24.2816667,4.655 L24.2816667,8.99666667 L22.2866667,8.99666667 C20.63,8.99666667 20,10.24 20,11.3933333 L20,14.21 L24.28,14.21 L23.3333333,18.3333333 L20,18.3333333 L20,30 L26.6666667,30 C28.5,30 30,28.5016667 30,26.6666667 L30,3.33333333 C30,1.5 28.5,0 26.6666667,0" id="Fill-1" fill="#FFFFFF" mask="url(#mask-2)"></path>
                    </g>
                </g>
            </g>
        </g>
    </g>
</svg>