<?xml version="1.0" encoding="UTF-8"?>
<svg width="37px" height="30px" viewBox="0 0 37 30" version="1.1" xmlns="http://www.w3.org/2000/svg" xmlns:xlink="http://www.w3.org/1999/xlink">
    <!-- Generator: Sketch 49.3 (51167) - http://www.bohemiancoding.com/sketch -->
    <title>Twitter_Logo_White_On_Image</title>
    <desc>Created with Sketch.</desc>
    <defs></defs>
    <g id="Page-1" stroke="none" stroke-width="1" fill="none" fill-rule="evenodd">
        <g id="Share-page-created" transform="translate(-553.000000, -432.000000)" fill="#FFFFFF">
            <g id="Group-8" transform="translate(527.000000, 417.000000)">
                <g id="Group-6">
                    <g id="Twitter_Logo_White_On_Image" transform="translate(26.000000, 15.000000)">
                        <path d="M11.5313733,30 C25.3684933,30 32.93532,18.4592328 32.93532,8.45199776 C32.93532,8.12405871 32.92872,7.7975962 32.91376,7.47290553 C34.38248,6.40403981 35.65936,5.0702832 36.6666667,3.55166406 C35.3186533,4.15438679 33.86812,4.56073 32.3464533,4.74382069 C33.8996533,3.80651448 35.0920533,2.32288929 35.6543733,0.554587603 C34.2006133,1.42205357 32.59124,2.05297818 30.8777333,2.39272953 C29.50508,0.920768981 27.5500133,0 25.38668,0 C21.2319067,0 17.8628267,3.39175501 17.8628267,7.57286714 C17.8628267,8.16732127 17.9289733,8.74509051 18.0578933,9.29967811 C11.8059333,8.98325606 6.26193333,5.96949473 2.552,1.38705962 C1.90534667,2.50597998 1.53325333,3.80651448 1.53325333,5.19342645 C1.53325333,7.82107315 2.86132,10.1405664 4.88077333,11.4975047 C3.64701333,11.4592623 2.48761333,11.1178868 1.47370667,10.5500103 C1.47194667,10.5816082 1.47194667,10.6133538 1.47194667,10.6465759 C1.47194667,14.3148865 4.06545333,17.3769306 7.50728,18.0713463 C6.87558667,18.2443965 6.2106,18.3377137 5.5242,18.3377137 C5.03961333,18.3377137 4.56822667,18.2894309 4.11004,18.201134 C5.06777333,21.2100227 7.84476,23.3995807 11.13772,23.4612999 C8.56254667,25.492573 5.31916,26.7030387 1.79461333,26.7030387 C1.18756,26.7030387 0.588866667,26.6681924 0,26.5982045 C3.32948,28.7461241 7.28244,30 11.5313733,30" id="Fill-2"></path>
                    </g>
                </g>
            </g>
        </g>
    </g>
</svg>